<svg width="7" height="13" viewBox="0 0 7 13" fill="none" xmlns="http://www.w3.org/2000/svg">
<g clip-path="url(#clip0_3311_897)">
<rect width="11.7132" height="6.5037" transform="translate(0 12.3962) rotate(-90)" fill="#0F2837"/>
<path d="M0.463595 12.3962C0.327621 12.3395 0.195592 12.279 0.106056 12.1587C-0.059056 11.9364 -0.0305256 11.6487 0.188004 11.4286C0.549793 11.0644 0.914313 10.7025 1.27792 10.3401C2.51656 9.10598 3.75429 7.8713 4.99657 6.64064C5.0849 6.55325 5.06851 6.5117 4.99081 6.43434C3.39463 4.84809 1.80391 3.25697 0.205001 1.6733C-0.0845516 1.38647 -0.0399351 1.00481 0.218962 0.808249C0.438099 0.64206 0.750415 0.640056 0.96591 0.810543C1.01842 0.85209 1.06577 0.899367 1.11281 0.94636C2.84284 2.67014 4.57287 4.39393 6.30229 6.11829C6.57029 6.38534 6.57029 6.69422 6.30229 6.96127C4.57894 8.67961 2.85407 10.3974 1.13133 12.1174C1.01387 12.2346 0.8873 12.3335 0.73008 12.3962L0.463595 12.3962Z" fill="white"/>
</g>
<defs>
<clipPath id="clip0_3311_897">
<rect width="11.7132" height="6.5037" fill="white" transform="translate(0 12.3962) rotate(-90)"/>
</clipPath>
</defs>
</svg>
