<svg width="12" height="8" viewBox="0 0 12 8" fill="none" xmlns="http://www.w3.org/2000/svg">
<path d="M-4.25355e-09 0.503289C0.0567336 0.355614 0.117192 0.212224 0.237536 0.114983C0.459886 -0.0643366 0.747566 -0.0333512 0.967624 0.203983C1.33181 0.596904 1.6937 0.992791 2.05616 1.38769C3.29026 2.73292 4.52494 4.07715 5.7556 5.42633C5.84299 5.52226 5.88454 5.50446 5.9619 5.42007C7.54815 3.68654 9.13927 1.95894 10.7229 0.222443C11.0098 -0.0920256 11.3914 -0.0435698 11.588 0.237606C11.7542 0.4756 11.7562 0.81479 11.5857 1.04883C11.5441 1.10585 11.4969 1.15728 11.4499 1.20837C9.7261 3.08727 8.00231 4.96617 6.27795 6.84441C6.0109 7.13547 5.70202 7.13547 5.43497 6.84441C3.71663 4.97276 1.99886 3.09947 0.278797 1.22848C0.161605 1.10091 0.0627508 0.963454 -6.69955e-09 0.792705L-4.25355e-09 0.503289Z" fill="#0F2837"/>
</svg>
