<svg width="20" height="19" viewBox="0 0 20 19" fill="none" xmlns="http://www.w3.org/2000/svg">
<g clip-path="url(#clip0_3311_885)">
<path d="M16.9731 3.59731C16.5799 3.20392 16.113 2.89185 15.5992 2.67894C15.0854 2.46603 14.5346 2.35645 13.9784 2.35645C13.4222 2.35645 12.8714 2.46603 12.3576 2.67894C11.8437 2.89185 11.3769 3.20392 10.9837 3.59731L10.1676 4.41335L9.35159 3.59731C8.55734 2.80306 7.48011 2.35686 6.35687 2.35686C5.23364 2.35686 4.1564 2.80306 3.36216 3.59731C2.56791 4.39156 2.1217 5.46879 2.1217 6.59203C2.1217 7.71526 2.56791 8.7925 3.36216 9.58674L4.1782 10.4028L10.1676 16.3922L16.1571 10.4028L16.9731 9.58674C17.3665 9.19354 17.6786 8.72668 17.8915 8.21284C18.1044 7.69899 18.214 7.14823 18.214 6.59203C18.214 6.03582 18.1044 5.48506 17.8915 4.97122C17.6786 4.45738 17.3665 3.99052 16.9731 3.59731Z" stroke="white" stroke-width="2" stroke-linecap="round" stroke-linejoin="round"/>
</g>
<defs>
<clipPath id="clip0_3311_885">
<rect width="18.4764" height="18.4764" fill="white" transform="translate(0.929443 0.0483398)"/>
</clipPath>
</defs>
</svg>
