<svg width="94" height="35" viewBox="0 0 94 35" fill="none" xmlns="http://www.w3.org/2000/svg">
<rect x="0.5" y="0.5" width="93" height="34" rx="17" fill="white" stroke="#0F2837"/>
<path d="M40.184 10.328H41.912V19.48H47.368V21H40.184V10.328ZM48.3889 17.256C48.3889 16.5093 48.5595 15.8427 48.9009 15.256C49.2529 14.6587 49.7275 14.1893 50.3249 13.848C50.9222 13.496 51.5995 13.32 52.3569 13.32C53.1142 13.32 53.7915 13.496 54.3889 13.848C54.9969 14.1893 55.4715 14.6587 55.8129 15.256C56.1649 15.8427 56.3409 16.5093 56.3409 17.256C56.3409 18.0133 56.1649 18.696 55.8129 19.304C55.4715 19.9013 54.9969 20.3707 54.3889 20.712C53.7915 21.0533 53.1142 21.224 52.3569 21.224C51.5995 21.224 50.9222 21.0533 50.3249 20.712C49.7275 20.3707 49.2529 19.9013 48.9009 19.304C48.5595 18.696 48.3889 18.0133 48.3889 17.256ZM50.0369 17.272C50.0369 18.0187 50.2502 18.632 50.6769 19.112C51.1142 19.5813 51.6742 19.816 52.3569 19.816C52.8049 19.816 53.2049 19.7093 53.5569 19.496C53.9089 19.272 54.1862 18.968 54.3889 18.584C54.5915 18.2 54.6929 17.7627 54.6929 17.272C54.6929 16.7707 54.5915 16.3333 54.3889 15.96C54.1969 15.576 53.9249 15.2773 53.5729 15.064C53.2209 14.84 52.8209 14.728 52.3729 14.728C51.6902 14.728 51.1302 14.968 50.6929 15.448C50.2555 15.9173 50.0369 16.5253 50.0369 17.272ZM63.2575 20.92V20.008C62.7455 20.7333 61.9615 21.096 60.9055 21.096C60.2335 21.096 59.6415 20.9413 59.1295 20.632C58.6282 20.3227 58.2335 19.8907 57.9455 19.336C57.6682 18.7813 57.5295 18.136 57.5295 17.4C57.5295 16.568 57.7108 15.848 58.0735 15.24C58.4362 14.632 58.9428 14.1627 59.5935 13.832C60.2548 13.4907 61.0282 13.32 61.9135 13.32C62.3935 13.32 62.8948 13.368 63.4175 13.464C63.9402 13.5493 64.4148 13.6773 64.8415 13.848V20.856C64.8415 21.9973 64.5108 22.8773 63.8495 23.496C63.1882 24.1147 62.2388 24.424 61.0015 24.424C59.7748 24.424 58.7562 24.1093 57.9455 23.48L58.6495 22.296C59.3642 22.808 60.1375 23.064 60.9695 23.064C62.4948 23.064 63.2575 22.3493 63.2575 20.92ZM63.2255 17.608V14.904C62.7668 14.7867 62.3402 14.728 61.9455 14.728C61.0708 14.728 60.3882 14.9627 59.8975 15.432C59.4175 15.8907 59.1775 16.5307 59.1775 17.352C59.1775 18.0667 59.3642 18.6427 59.7375 19.08C60.1108 19.5067 60.6068 19.72 61.2255 19.72C61.8228 19.72 62.3028 19.5227 62.6655 19.128C63.0388 18.7333 63.2255 18.2267 63.2255 17.608ZM66.7725 13.56H68.3885V21H66.7725V13.56ZM66.7085 10.6H68.4685V12.264H66.7085V10.6ZM70.3194 13.56H71.8234L71.8874 14.648C72.1434 14.232 72.49 13.9067 72.9274 13.672C73.3754 13.4373 73.882 13.32 74.4474 13.32C75.3327 13.32 76.0154 13.5973 76.4954 14.152C76.986 14.696 77.2314 15.4587 77.2314 16.44V21H75.6154V16.664C75.6154 16.0347 75.4714 15.56 75.1834 15.24C74.906 14.9093 74.5007 14.744 73.9674 14.744C73.3487 14.744 72.8527 14.9627 72.4794 15.4C72.1167 15.8373 71.9354 16.424 71.9354 17.16V21H70.3194V13.56Z" fill="#0F2837"/>
<path d="M28 24.7327V22.9227C28 21.9625 27.6576 21.0417 27.0481 20.3628C26.4386 19.6839 25.612 19.3025 24.75 19.3025H18.25C17.388 19.3025 16.5614 19.6839 15.9519 20.3628C15.3424 21.0417 15 21.9625 15 22.9227V24.7327" stroke="#0F2837" stroke-width="1.2" stroke-linecap="round" stroke-linejoin="round"/>
<path d="M21.5 16.0444C23.433 16.0444 25 14.3425 25 12.2432C25 10.1439 23.433 8.44202 21.5 8.44202C19.567 8.44202 18 10.1439 18 12.2432C18 14.3425 19.567 16.0444 21.5 16.0444Z" stroke="#0F2837" stroke-width="1.2" stroke-linecap="round" stroke-linejoin="round"/>
</svg>
