<svg width="121" height="76" viewBox="0 0 121 76" fill="none" xmlns="http://www.w3.org/2000/svg">
<mask id="mask0_3311_790" style="mask-type:luminance" maskUnits="userSpaceOnUse" x="0" y="0" width="121" height="76">
<path d="M121 0H0V76H121V0Z" fill="white"/>
</mask>
<g mask="url(#mask0_3311_790)">
<path d="M24.8492 49.0213C24.3809 48.0922 23.6918 47.6302 22.782 47.6302C22.4106 47.6302 22.0607 47.7162 21.7377 47.8827C21.4093 48.0492 21.1294 48.2801 20.8925 48.5756C20.6557 48.871 20.4672 49.2201 20.3273 49.6175C20.1873 50.015 20.1173 50.4447 20.1173 50.8958C20.1173 51.6961 20.3327 52.3192 20.7741 52.7649C21.2101 53.2107 21.8131 53.4363 22.5775 53.4363C22.9274 53.4363 23.2558 53.3826 23.5626 53.2806C23.8695 53.1785 24.144 53.0335 24.3755 52.8455V54.0647C24.3755 54.2957 23.9933 54.4729 23.2235 54.5857C22.4537 54.7039 9.35615 54.7576 7.84344 54.7576H7.4397C6.86907 54.7576 6.45456 54.6502 6.20154 54.4353C5.94853 54.2205 5.82471 53.866 5.83548 53.3665L5.90546 47.4691L4.52734 47.7108V48.7743C3.12231 49.0643 2.02412 49.5209 1.23816 50.1493C0.452199 50.7777 0.0592194 51.535 0.0592194 52.4266C0.0592194 52.7972 0.134585 53.1302 0.285317 53.4256C0.436049 53.721 0.640614 53.9681 0.899011 54.1668C1.15203 54.3655 1.45349 54.5159 1.79802 54.618C2.14255 54.7254 2.50861 54.7737 2.90698 54.7737C3.56912 54.7737 4.14513 54.6341 4.63501 54.3548C4.83419 55.6653 5.7655 56.3206 7.44508 56.3206H7.84883C8.46252 56.3206 20.9679 56.3098 21.4308 56.2937C21.8938 56.2776 22.3083 56.2454 22.669 56.197C23.0297 56.1487 23.3365 56.095 23.6003 56.0305C23.8641 55.9661 24.101 55.8855 24.3217 55.7781C24.7739 55.5686 25.0969 55.2625 25.2799 54.865C25.4629 54.4622 25.5598 53.8821 25.5598 53.1141C25.5598 51.304 25.323 49.9344 24.8546 49.0106M23.6165 51.9862C23.3311 52.0667 23.0404 52.1097 22.7336 52.1097C22.2437 52.1097 21.8723 51.9969 21.6085 51.7767C21.3501 51.5565 21.2155 51.2342 21.2155 50.8045C21.2155 50.3158 21.3609 49.9076 21.6516 49.5799C21.9423 49.2523 22.3029 49.0858 22.7336 49.0858C23.1966 49.0858 23.5572 49.2899 23.8049 49.6927C24.0525 50.1009 24.2194 50.7562 24.3001 51.6585C24.1279 51.7982 23.8964 51.911 23.6111 51.9915M3.11154 53.2591C2.86929 53.2591 2.63243 53.2376 2.40633 53.2C2.18023 53.157 1.98105 53.0926 1.8034 53.0066C1.63114 52.9207 1.49117 52.8079 1.39427 52.6683C1.29199 52.5286 1.24354 52.3567 1.24354 52.1473C1.24354 51.8895 1.33506 51.6585 1.51271 51.4437C1.69035 51.2288 1.93798 51.0355 2.24483 50.869C2.55168 50.7025 2.90698 50.5628 3.29995 50.45C3.69293 50.3372 4.10745 50.262 4.53811 50.2137L4.57041 53.012C4.15051 53.1731 3.66063 53.2537 3.10616 53.2537" fill="#0F2837"/>
<path d="M46.1293 46.9857L45.0473 45.89L43.9706 46.9857L45.0473 48.0814L46.1293 46.9857Z" fill="#0F2837"/>
<path d="M48.6756 46.9857L47.5936 45.89L46.5116 46.9857L47.5936 48.0814L48.6756 46.9857Z" fill="#0F2837"/>
<path d="M66.4782 46.7064L65.3961 45.6107L64.3195 46.7064L65.3961 47.8075L66.4782 46.7064Z" fill="#0F2837"/>
<path d="M66.6719 50.0472L67.754 48.9515L66.6719 47.8558L65.5899 48.9515L66.6719 50.0472Z" fill="#0F2837"/>
<path d="M65.2077 48.9515L64.1257 47.8558L63.0436 48.9515L64.1257 50.0472L65.2077 48.9515Z" fill="#0F2837"/>
<path d="M81.6859 45.3529L81.7397 53.8767C81.7397 54.0378 81.6805 54.1775 81.5567 54.2957C81.4329 54.4138 81.2768 54.5051 81.083 54.575C80.8892 54.6448 80.6739 54.6931 80.4316 54.7253C80.1894 54.7522 68.0016 54.7683 67.7378 54.7683C66.3543 54.7683 65.6653 54.4084 65.6653 53.6887C65.6653 53.5974 65.6868 53.345 65.7352 52.9422C65.7837 52.534 65.8321 52.0882 65.8914 51.6048L64.707 51.4651C64.6855 51.6155 64.664 51.7928 64.6371 51.9861C64.6155 52.1848 64.5832 52.3782 64.5509 52.5769C64.5132 52.7757 64.4809 52.969 64.4486 53.157C64.4163 53.3504 64.384 53.5061 64.3625 53.635C64.271 54.0432 64.0395 54.3333 63.6735 54.5051C63.3074 54.677 50.7966 54.7629 50.0322 54.7629C49.6823 54.7629 49.3539 54.7629 49.0363 54.7468C48.7241 54.7361 48.4334 54.72 48.1642 54.6931C48.7671 54.1238 49.0686 53.4148 49.0686 52.5716C49.0686 52.1419 48.9932 51.739 48.8479 51.3631C48.7025 50.9871 48.5034 50.6595 48.2557 50.3802C48.0081 50.1009 47.7174 49.8807 47.3836 49.7195C47.0553 49.5584 46.7 49.4778 46.3285 49.4778C45.9571 49.4778 45.6072 49.5584 45.2734 49.7195C44.945 49.8807 44.6489 50.1009 44.4013 50.3802C44.1537 50.6595 43.9545 50.9871 43.8091 51.3631C43.6638 51.739 43.5938 52.1419 43.5938 52.5716C43.5938 53.4309 43.8953 54.1345 44.4982 54.6931C44.2183 54.7146 43.9222 54.7361 43.61 54.7468C43.2977 54.7576 31.0077 54.7629 30.6739 54.7629C30.1033 54.7629 29.6942 54.6555 29.4465 54.4407C29.1989 54.2258 29.0697 53.8713 29.0697 53.3718L29.1397 45.1058L27.7616 45.3475L27.8316 53.8928C27.8585 55.5149 28.8006 56.3259 30.6739 56.3259C31.3253 56.3259 43.9276 56.2722 44.552 56.1701C45.1819 56.0681 45.774 55.9123 46.3339 55.719C46.8938 55.9177 47.4859 56.0681 48.1104 56.1701C48.7402 56.2722 49.3755 56.3259 50.0268 56.3259C50.759 56.3259 63.3505 56.2239 63.878 56.0198C64.4056 55.8157 64.7878 55.531 65.0193 55.1604C65.4715 55.9392 66.3812 56.3259 67.7378 56.3259C68.1685 56.3259 80.5177 56.2829 80.9107 56.197C81.2983 56.1111 81.6482 55.966 81.9551 55.7619C82.2619 55.5578 82.5149 55.2893 82.7034 54.9617C82.8971 54.634 82.9887 54.2205 82.9887 53.7371L83.0586 45.1058L81.6805 45.3475L81.6859 45.3529ZM46.3231 54.3494C45.2519 54.0003 44.7189 53.4256 44.7189 52.6253C44.7189 52.3943 44.7566 52.1795 44.8427 51.9807C44.9235 51.782 45.0365 51.6101 45.1819 51.4598C45.3272 51.3094 45.4995 51.1912 45.6987 51.1106C45.8979 51.0301 46.1078 50.9871 46.3285 50.9871C46.5492 50.9871 46.7592 51.0301 46.953 51.1106C47.1522 51.1912 47.3244 51.3094 47.4698 51.4598C47.6151 51.6101 47.7282 51.7874 47.8089 51.9807C47.8897 52.1795 47.9327 52.3943 47.9327 52.6253C47.9327 53.4256 47.3998 54.0003 46.3285 54.3494" fill="#0F2837"/>
<path d="M85.3465 56.3313L85.2604 45.3529L86.6385 45.1058L86.547 56.3313H85.3465Z" fill="#0F2837"/>
<path d="M97.7281 53.721C97.7281 54.5535 97.4589 55.2195 96.926 55.7136C96.3876 56.2078 95.6609 56.4548 94.7296 56.4548C93.7391 56.4548 92.9908 56.2131 92.4794 55.7351C91.968 55.2517 91.7096 54.5588 91.7096 53.6565C91.7096 53.0872 91.7903 52.5501 91.9518 52.0452C92.1133 51.5403 92.334 51.0945 92.6032 50.7132C92.8777 50.3319 93.1954 50.0311 93.5614 49.8109C93.9275 49.5906 94.3151 49.4779 94.7188 49.4779C95.1226 49.4779 95.5317 49.5906 95.8978 49.8109C96.2638 50.0311 96.5814 50.3319 96.8506 50.7132C97.1198 51.0945 97.3297 51.5457 97.4858 52.0613C97.6419 52.5769 97.7227 53.1302 97.7227 53.721M93.4322 48.0814L92.3502 46.9857L93.4322 45.89L94.5143 46.9857L93.4322 48.0814ZM96.5384 53.8767C96.5384 53.4685 96.4953 53.0979 96.4092 52.7542C96.323 52.4104 96.1938 52.115 96.0323 51.868C95.8708 51.6209 95.677 51.4222 95.4563 51.2825C95.2356 51.1429 94.9934 51.0731 94.7242 51.0731C94.482 51.0731 94.2451 51.1321 94.019 51.2557C93.7929 51.3792 93.5991 51.5403 93.4322 51.7498C93.2707 51.9593 93.1415 52.201 93.0392 52.4803C92.9423 52.7596 92.8885 53.055 92.8885 53.3665C92.8885 53.866 93.0446 54.242 93.3568 54.5051C93.6691 54.7683 94.1213 54.8972 94.7188 54.8972C94.9611 54.8972 95.1979 54.8704 95.4133 54.8167C95.634 54.7629 95.8278 54.6878 95.9893 54.5911C96.1508 54.4944 96.2853 54.3816 96.3822 54.2634C96.4791 54.1399 96.533 54.011 96.533 53.8714M95.9731 48.076L94.8911 46.9803L95.9731 45.8846L97.0552 46.9803L95.9731 48.076Z" fill="#0F2837"/>
<path d="M97.2382 58.4368C97.868 58.2058 98.4494 57.9373 98.9824 57.6365C99.5153 57.3357 99.9783 57.0188 100.371 56.6912C100.759 56.3582 101.066 56.0306 101.286 55.6976C101.507 55.3699 101.62 55.053 101.62 54.7523C101.62 54.5643 101.577 54.3279 101.496 54.0379C101.416 53.7479 101.303 53.431 101.157 53.0926C101.012 52.7489 100.84 52.3944 100.646 52.0238C100.447 51.6532 100.237 51.2933 100.016 50.9442L101.27 50.246C101.76 50.8959 102.142 51.6156 102.422 52.4051C102.702 53.1947 102.842 53.9305 102.842 54.6126C102.842 55.7029 102.422 56.7019 101.588 57.615C100.748 58.5281 99.5692 59.2586 98.0457 59.8171L97.2436 58.4422L97.2382 58.4368Z" fill="#0F2837"/>
<path d="M105.243 56.3313L105.157 45.3529L106.53 45.1058L106.444 56.3313H105.243Z" fill="#0F2837"/>
<path d="M107.402 58.4367C108.032 58.2058 108.613 57.9372 109.146 57.6365C109.679 57.3357 110.142 57.0188 110.535 56.6858C110.922 56.3582 111.229 56.0252 111.45 55.6921C111.671 55.3591 111.778 55.0476 111.778 54.7415C111.778 54.5535 111.735 54.3172 111.655 54.0271C111.574 53.7371 111.461 53.4202 111.315 53.0818C111.17 52.7381 110.998 52.3836 110.804 52.013C110.605 51.6424 110.395 51.2825 110.174 50.9334L111.429 50.2352C111.918 50.8851 112.301 51.6048 112.581 52.3943C112.86 53.1839 113 53.9197 113 54.6018C113 55.6921 112.581 56.6912 111.746 57.6042C110.906 58.5173 109.727 59.2478 108.204 59.8064L107.402 58.4314V58.4367ZM110.594 48.8333L109.512 47.7377L110.594 46.642L111.676 47.7377L110.594 48.8333Z" fill="#0F2837"/>
<path d="M115.288 58.3831C117.802 58.034 119.245 57.1263 119.633 55.6546C119.401 55.8265 119.127 55.9607 118.82 56.052C118.513 56.1434 118.185 56.1917 117.835 56.1917C117.07 56.1917 116.451 55.9231 115.988 55.3914C115.525 54.8597 115.288 54.1561 115.288 53.286C115.288 52.7972 115.358 52.3514 115.498 51.9378C115.638 51.5243 115.832 51.1698 116.074 50.869C116.317 50.5682 116.607 50.3319 116.946 50.1654C117.286 49.9989 117.652 49.913 118.045 49.913C118.949 49.913 119.66 50.3212 120.166 51.1376C120.672 51.954 120.925 53.1087 120.925 54.5911C120.925 55.284 120.806 55.9285 120.569 56.5247C120.332 57.1155 119.993 57.6365 119.557 58.0877C119.121 58.5388 118.594 58.9148 117.98 59.2102C117.366 59.5056 116.677 59.7043 115.924 59.8118L115.294 58.3831H115.288ZM118.061 54.7791C118.384 54.7791 118.701 54.7308 119.008 54.6395C119.315 54.5482 119.557 54.43 119.735 54.2903C119.686 53.3719 119.514 52.6683 119.218 52.1688C118.922 51.6693 118.513 51.4222 117.991 51.4222C117.539 51.4222 117.167 51.5887 116.882 51.9271C116.596 52.2655 116.457 52.7059 116.457 53.2484C116.457 53.7371 116.596 54.1131 116.882 54.3817C117.167 54.6502 117.56 54.7791 118.061 54.7791Z" fill="#0F2837"/>
<path d="M0.538334 62.5188H1.95414L5.07644 67.8415L8.19874 62.5188H9.58225L10.056 72.7506H8.61326L8.27411 64.8928L5.38329 69.7267H4.64578L1.80341 64.9572L1.44811 72.7506H0.0646057L0.538334 62.5188Z" fill="#0F2837"/>
<path d="M12.5753 62.4705L13.6735 63.5661L12.5753 64.6618L11.4772 63.5661L12.5753 62.4705ZM11.8917 65.6125H13.2752V72.7452H11.8917V65.6125Z" fill="#0F2837"/>
<path d="M15.2401 72.7505V66.069C15.2401 65.9723 15.2347 65.8219 15.2239 65.6178H16.5482L16.5967 66.692C16.6882 66.5685 16.8012 66.4342 16.9358 66.2838C17.0704 66.1334 17.2319 65.9991 17.4257 65.8756C17.6195 65.7521 17.8456 65.65 18.1094 65.5695C18.3731 65.4889 18.6638 65.4459 18.9922 65.4459C19.9235 65.4459 20.618 65.7145 21.0702 66.2569C21.517 66.7994 21.7485 67.5353 21.7485 68.4644V72.7451H20.365V68.5719C20.365 67.9059 20.225 67.4171 19.9343 67.1056C19.649 66.7941 19.2399 66.6383 18.7177 66.6383C18.3193 66.6383 17.9855 66.7189 17.7164 66.8854C17.4526 67.0465 17.2373 67.2613 17.0812 67.5191C16.9197 67.7823 16.8066 68.0777 16.7366 68.4107C16.6666 68.7437 16.629 69.0821 16.629 69.4312V72.7451H15.2455L15.2401 72.7505Z" fill="#0F2837"/>
<path d="M24.1063 62.4705L25.2045 63.5661L24.1063 64.6618L23.0081 63.5661L24.1063 62.4705ZM23.4227 65.6125H24.8062V72.7452H23.4227V65.6125Z" fill="#0F2837"/>
<path d="M27.1156 70.9566C27.3686 71.2144 27.6808 71.4185 28.0415 71.5689C28.3968 71.7246 28.8167 71.7998 29.285 71.7998C29.7534 71.7998 30.1302 71.7247 30.4425 71.5796C30.7493 71.4292 30.9054 71.1983 30.9054 70.8814C30.9054 70.7149 30.8731 70.5752 30.8085 70.4571C30.7385 70.3389 30.6309 70.2369 30.4694 70.1402C30.3133 70.0489 30.0979 69.9629 29.8395 69.8878C29.5757 69.8126 29.2527 69.7266 28.8652 69.6353C28.5852 69.5762 28.3161 69.4903 28.0415 69.3883C27.767 69.2862 27.5247 69.1519 27.3094 68.9801C27.0941 68.8135 26.9164 68.6041 26.7872 68.3678C26.6526 68.1261 26.588 67.8414 26.588 67.503C26.588 67.1646 26.6688 66.8478 26.8249 66.59C26.981 66.3268 27.1963 66.1119 27.4601 65.9293C27.7293 65.7521 28.0254 65.6178 28.3591 65.5211C28.6929 65.4298 29.0374 65.3815 29.3981 65.3815C30.001 65.3815 30.5232 65.462 30.9592 65.6178C31.3953 65.7789 31.7775 65.9991 32.1059 66.2838L31.3522 67.2345C31.1369 67.0411 30.8677 66.88 30.5447 66.7457C30.2217 66.6114 29.8449 66.547 29.4142 66.547C28.9836 66.547 28.6175 66.6222 28.3537 66.7618C28.0846 66.9068 27.9554 67.1378 27.9554 67.4654C27.9554 67.7716 28.133 68.0025 28.4883 68.1475C28.8436 68.2926 29.3066 68.4376 29.8772 68.5719C30.2164 68.6524 30.534 68.7491 30.8247 68.8565C31.1154 68.9639 31.3738 69.1036 31.5945 69.2701C31.8152 69.4366 31.9875 69.6461 32.1167 69.8931C32.2405 70.1402 32.3105 70.4356 32.3105 70.7847C32.3105 71.1338 32.2297 71.4561 32.0628 71.73C31.8959 72.0039 31.6806 72.2295 31.4007 72.4121C31.1207 72.5948 30.8031 72.7344 30.4478 72.8257C30.0872 72.917 29.7103 72.9654 29.3227 72.9654C27.9661 72.9654 26.9541 72.6055 26.2758 71.875L27.121 70.9512L27.1156 70.9566Z" fill="#0F2837"/>
<path d="M34.523 66.7673H33.231V65.6179H34.523V63.2869H35.9065V65.6179H38.0006V66.7673H35.9065V70.2799C35.9065 70.8546 35.998 71.2467 36.1756 71.4616C36.3533 71.6764 36.6117 71.7838 36.9401 71.7838C37.2039 71.7838 37.4246 71.7409 37.6022 71.6603C37.7799 71.5797 37.9521 71.4562 38.1244 71.2897L38.7542 72.1329C38.4528 72.4176 38.1513 72.6271 37.8391 72.756C37.5269 72.8849 37.1554 72.9493 36.7247 72.9493C35.9657 72.9493 35.4112 72.7452 35.0559 72.337C34.7006 71.9288 34.523 71.2897 34.523 70.4196V66.7673Z" fill="#0F2837"/>
<path d="M39.9386 72.7505V66.0636C39.9386 65.9723 39.9332 65.8219 39.9224 65.6178H41.2467L41.2951 66.7672C41.3759 66.6437 41.4836 66.5094 41.6181 66.359C41.7527 66.2086 41.9142 66.0743 42.1026 65.9508C42.2911 65.8273 42.5118 65.7252 42.7648 65.6393C43.0124 65.5533 43.3031 65.5104 43.6315 65.5104C43.7876 65.5104 43.9276 65.5211 44.0568 65.5426C44.186 65.5641 44.3044 65.5963 44.4174 65.6339L44.1106 66.923C43.9276 66.8531 43.6907 66.8155 43.4054 66.8155C43.1201 66.8155 42.8348 66.8746 42.5817 66.982C42.3287 67.0948 42.1134 67.2506 41.9304 67.4493C41.7473 67.648 41.5966 67.879 41.4889 68.1475C41.3813 68.4107 41.3274 68.6954 41.3274 68.9908V72.7505H39.9439H39.9386Z" fill="#0F2837"/>
<path d="M45.8117 74.4961C45.914 74.5874 46.0324 74.668 46.167 74.7432C46.3016 74.813 46.4631 74.8506 46.6623 74.8506C46.8292 74.8506 46.9691 74.813 47.0822 74.7432C47.2006 74.6733 47.3083 74.5606 47.4052 74.4155C47.5021 74.2651 47.5936 74.0879 47.6797 73.8784C47.7659 73.669 47.8681 73.4273 47.9812 73.148L48.1642 72.6861L44.9665 65.6124H46.5492L48.8533 70.9996L50.8828 65.6124H52.3901L49.5316 72.5625C49.397 72.8902 49.2624 73.25 49.1224 73.6421C48.9825 74.0342 48.8102 74.4102 48.6056 74.7646C48.4011 75.1191 48.1481 75.4145 47.852 75.6455C47.5505 75.8818 47.1791 76 46.7269 76C46.3662 76 46.0647 75.9516 45.8225 75.855C45.5749 75.7583 45.3595 75.6294 45.1765 75.4629L45.8063 74.4961H45.8117Z" fill="#0F2837"/>
<path d="M59.2053 72.9654C58.6508 72.9654 58.1448 72.8687 57.6818 72.6646C57.2189 72.4658 56.8205 72.1919 56.4921 71.8428C56.1584 71.4937 55.9 71.0962 55.7062 70.6397C55.5124 70.1832 55.4209 69.6944 55.4209 69.1734C55.4209 68.6524 55.5124 68.1637 55.7062 67.7071C55.8946 67.2506 56.153 66.8531 56.4921 66.504C56.8259 66.1549 57.2243 65.881 57.6818 65.6822C58.1448 65.4835 58.6508 65.3815 59.2053 65.3815C59.7598 65.3815 60.2497 65.4781 60.7126 65.6822C61.1756 65.881 61.574 66.1549 61.9131 66.504C62.2523 66.8531 62.516 67.256 62.7045 67.7071C62.8929 68.1637 62.9898 68.6524 62.9898 69.1734C62.9898 69.6944 62.8929 70.1832 62.7045 70.6397C62.516 71.0962 62.2523 71.4937 61.9131 71.8428C61.574 72.1919 61.1756 72.4658 60.7126 72.6646C60.2497 72.8633 59.749 72.9654 59.2053 72.9654ZM59.2053 71.7676C59.5768 71.7676 59.9105 71.6924 60.2066 71.5474C60.5027 71.397 60.7557 71.2037 60.9603 70.962C61.1648 70.7203 61.3209 70.4463 61.4286 70.1348C61.5363 69.8233 61.5901 69.5064 61.5901 69.1734C61.5901 68.8404 61.5363 68.5396 61.4286 68.2281C61.3209 67.9166 61.1594 67.6373 60.9495 67.3902C60.7396 67.1432 60.4865 66.9498 60.1958 66.7994C59.9051 66.649 59.5714 66.5792 59.2053 66.5792C58.8393 66.5792 58.5055 66.6544 58.2094 66.7994C57.9079 66.9498 57.6603 67.1432 57.4558 67.3849C57.2512 67.6266 57.0951 67.9005 56.9874 68.212C56.8797 68.5235 56.8259 68.8458 56.8259 69.1734C56.8259 69.501 56.8797 69.8179 56.9874 70.1241C57.0951 70.4302 57.2512 70.7095 57.4665 70.9512C57.6765 71.1983 57.9295 71.3916 58.2202 71.542C58.5109 71.6924 58.8393 71.7622 59.2107 71.7622" fill="#0F2837"/>
<path d="M65.0946 66.7673H63.8026V65.6179H65.0946V65.0324C65.0946 64.5544 65.1646 64.1355 65.2992 63.781C65.4392 63.4265 65.6222 63.1365 65.8537 62.9162C66.0852 62.6907 66.3489 62.5242 66.645 62.4167C66.9411 62.3093 67.2533 62.2556 67.5817 62.2556C67.9585 62.2556 68.33 62.3147 68.696 62.4329C69.0567 62.551 69.3959 62.7497 69.7027 63.0398L69.0137 63.9314C68.6368 63.6145 68.2277 63.4534 67.797 63.4534C67.3987 63.4534 67.0757 63.5823 66.8388 63.8347C66.5966 64.0925 66.4781 64.5329 66.4781 65.156V65.6179H68.5238V66.7673H66.4781V72.7506H65.0946V66.7673Z" fill="#0F2837"/>
<path d="M81.8312 70.9567C81.7182 71.1393 81.5459 71.3488 81.3091 71.5851C81.0722 71.8214 80.7869 72.0416 80.4477 72.2511C80.1086 72.4606 79.721 72.6378 79.2796 72.7775C78.8381 72.9225 78.3536 72.9923 77.8207 72.9923C77.0617 72.9923 76.3672 72.858 75.7428 72.5948C75.1183 72.3317 74.58 71.9557 74.1278 71.483C73.6756 71.0104 73.3257 70.4464 73.0727 69.7965C72.8196 69.1466 72.6958 68.4377 72.6958 67.6696C72.6958 66.9016 72.8196 66.2248 73.0727 65.5695C73.3257 64.9143 73.6756 64.3396 74.1278 63.8508C74.58 63.3567 75.1183 62.9753 75.7481 62.6907C76.378 62.4114 77.0778 62.2664 77.8476 62.2664C78.3913 62.2664 78.8758 62.3308 79.3065 62.4651C79.7372 62.5994 80.114 62.7659 80.437 62.9646C80.76 63.1633 81.0345 63.3835 81.266 63.6145C81.4975 63.8508 81.6859 64.0764 81.8312 64.2912L80.7815 65.1828C80.6577 65.011 80.5123 64.8283 80.3455 64.6403C80.1732 64.4524 79.974 64.2805 79.7371 64.1247C79.5003 63.9743 79.2311 63.8454 78.9243 63.7434C78.6174 63.6413 78.2621 63.5876 77.8638 63.5876C77.2985 63.5876 76.7979 63.695 76.3511 63.9099C75.9043 64.1247 75.5274 64.4148 75.2152 64.7854C74.903 65.156 74.6661 65.5856 74.4992 66.0744C74.3323 66.5685 74.2516 67.0895 74.2516 67.6374C74.2516 68.1852 74.3377 68.7116 74.5046 69.195C74.6715 69.6837 74.9137 70.1027 75.2206 70.4625C75.5274 70.8224 75.9043 71.1017 76.3403 71.3058C76.7817 71.5099 77.2716 71.6119 77.8153 71.6119C78.2783 71.6119 78.6766 71.5529 79.005 71.4347C79.3388 71.3165 79.6187 71.1769 79.8502 71.0158C80.0817 70.8493 80.2701 70.6827 80.4208 70.5162C80.5716 70.3444 80.6954 70.2047 80.7977 70.0919L81.8312 70.9513V70.9567Z" fill="#0F2837"/>
<path d="M83.274 65.6178H84.6575V69.8072C84.6575 70.4839 84.7974 70.9727 85.072 71.2735C85.3519 71.5743 85.7503 71.7247 86.2725 71.7247C86.6708 71.7247 87.0046 71.6441 87.263 71.4776C87.5268 71.3165 87.7367 71.1016 87.9036 70.8438C88.0651 70.5806 88.1835 70.2852 88.2481 69.9522C88.3127 69.6192 88.345 69.2808 88.345 68.9317V65.6178H89.7285V72.3155C89.7285 72.4659 89.7285 72.6109 89.7447 72.7559H88.4204L88.3719 71.6978C88.2804 71.8213 88.1674 71.9556 88.0328 72.0953C87.8982 72.2403 87.7313 72.3692 87.5429 72.4873C87.3491 72.6055 87.123 72.7076 86.8646 72.7881C86.6062 72.8687 86.3155 72.9117 85.9925 72.9117C85.0558 72.9117 84.3722 72.6431 83.9307 72.106C83.4893 71.5689 83.2686 70.8331 83.2686 69.9039V65.6232L83.274 65.6178Z" fill="#0F2837"/>
<path d="M93.0285 62.5188H91.645V72.7506H93.0285V62.5188Z" fill="#0F2837"/>
<path d="M95.5317 66.7673H94.2397V65.6179H95.5317V63.2869H96.9152V65.6179H99.0093V66.7673H96.9152V70.2799C96.9152 70.8546 97.0067 71.2467 97.1844 71.4616C97.362 71.6764 97.6204 71.7838 97.9488 71.7838C98.2126 71.7838 98.4333 71.7409 98.6109 71.6603C98.7832 71.5797 98.9609 71.4562 99.1331 71.2897L99.763 72.1329C99.4615 72.4176 99.16 72.6271 98.8478 72.756C98.5356 72.8849 98.1641 72.9493 97.7335 72.9493C96.9744 72.9493 96.4199 72.7452 96.0646 72.337C95.7094 71.9288 95.5317 71.2897 95.5317 70.4196V66.7673Z" fill="#0F2837"/>
<path d="M100.624 65.6178H102.008V69.8072C102.008 70.4839 102.148 70.9727 102.422 71.2735C102.702 71.5743 103.101 71.7247 103.623 71.7247C104.021 71.7247 104.355 71.6441 104.613 71.4776C104.877 71.3165 105.087 71.1016 105.254 70.8438C105.415 70.5806 105.534 70.2852 105.598 69.9522C105.663 69.6192 105.695 69.2808 105.695 68.9317V65.6178H107.079V72.3155C107.079 72.4659 107.079 72.6109 107.095 72.7559H105.771L105.722 71.6978C105.631 71.8213 105.518 71.9556 105.383 72.0953C105.249 72.2403 105.082 72.3692 104.893 72.4873C104.699 72.6055 104.473 72.7076 104.215 72.7881C103.962 72.8687 103.666 72.9117 103.343 72.9117C102.412 72.9117 101.722 72.6431 101.281 72.106C100.84 71.5689 100.619 70.8331 100.619 69.9039V65.6232L100.624 65.6178Z" fill="#0F2837"/>
<path d="M109.001 72.7505V66.0636C109.001 65.9723 108.995 65.8219 108.985 65.6178H110.309L110.357 66.7672C110.438 66.6437 110.546 66.5094 110.68 66.359C110.815 66.2086 110.976 66.0743 111.165 65.9508C111.353 65.8273 111.574 65.7252 111.827 65.6393C112.075 65.5533 112.365 65.5104 112.694 65.5104C112.85 65.5104 112.99 65.5211 113.119 65.5426C113.248 65.5641 113.367 65.5963 113.48 65.6339L113.173 66.923C112.99 66.8531 112.753 66.8155 112.467 66.8155C112.182 66.8155 111.897 66.8746 111.644 66.982C111.391 67.0948 111.176 67.2506 110.992 67.4493C110.809 67.648 110.659 67.879 110.551 68.1475C110.443 68.4107 110.39 68.6954 110.39 68.9908V72.7505H109.006H109.001Z" fill="#0F2837"/>
<path d="M120.736 71.7032C120.655 71.7945 120.532 71.9126 120.365 72.0577C120.203 72.2027 119.988 72.3369 119.724 72.4712C119.46 72.6055 119.154 72.7183 118.804 72.815C118.448 72.9116 118.05 72.96 117.598 72.96C117.043 72.96 116.537 72.8687 116.074 72.6861C115.611 72.5034 115.218 72.2403 114.89 71.9019C114.562 71.5635 114.309 71.1607 114.131 70.688C113.953 70.2154 113.862 69.6944 113.862 69.1251C113.862 68.6041 113.948 68.1153 114.126 67.6588C114.298 67.2022 114.545 66.8102 114.863 66.4772C115.181 66.1442 115.558 65.881 115.994 65.6876C116.43 65.4943 116.909 65.3976 117.431 65.3976C118.045 65.3976 118.572 65.5157 119.014 65.7521C119.455 65.9884 119.816 66.2999 120.096 66.6866C120.376 67.0733 120.585 67.5191 120.72 68.024C120.855 68.5235 120.919 69.0499 120.919 69.587H115.278C115.288 69.9039 115.358 70.1939 115.488 70.4625C115.617 70.7256 115.789 70.9566 116.004 71.1553C116.22 71.3487 116.467 71.5044 116.742 71.6172C117.016 71.73 117.312 71.7837 117.619 71.7837C118.222 71.7837 118.723 71.6817 119.11 71.4776C119.503 71.2735 119.783 71.0748 119.956 70.8814L120.742 71.7085L120.736 71.7032ZM119.493 68.5611C119.45 68.0079 119.256 67.5406 118.911 67.1485C118.561 66.7618 118.071 66.5631 117.436 66.5631C117.108 66.5631 116.812 66.6222 116.553 66.7296C116.29 66.8424 116.069 66.9874 115.886 67.1754C115.703 67.358 115.558 67.5728 115.455 67.8092C115.353 68.0509 115.294 68.2979 115.283 68.5557H119.498L119.493 68.5611Z" fill="#0F2837"/>
<path d="M95.8009 4.72114C95.0526 14.9315 95.9677 25.1042 95.7255 35.4058C95.6824 37.3018 95.9139 39.3266 95.7793 41.228C95.7632 41.4536 95.6986 41.6255 95.3541 41.6308C94.8857 41.5825 94.4174 41.5395 93.9436 41.6362C93.7875 40.2719 93.8521 39.2139 93.7229 38.043C93.4538 35.481 93.6045 33.3863 93.5829 30.5934C93.5453 25.8078 93.1415 20.9363 93.4914 16.1614C93.6152 14.4588 93.6314 11.6712 93.5453 9.96326C93.4591 8.22842 93.3676 6.94474 93.4753 4.73725C94.3043 4.6352 95.0795 4.6352 95.8116 4.72114" fill="#EB5A3C"/>
<path d="M10.8258 1.84766C11.6656 1.92822 12.0316 2.18066 12.0962 3.11522C12.1931 4.51705 11.9886 5.28511 12.1393 6.65472C12.6399 11.2255 11.5687 15.8553 12.0478 20.426C12.3008 22.843 12.0586 25.0129 12.1447 27.446C12.2739 31.0553 12.107 35.148 12.0209 39.3804H0.742897C0.349918 38.8272 0.4199 36.0074 0.538332 35.2769C0.645998 34.6324 0.640615 33.9825 0.635231 33.3326C0.608315 30.6739 0.775197 28.3053 0.753664 25.6467C0.737514 24.0837 0.721364 22.5154 0.46835 20.9739C0.242252 19.6096 0.592165 17.2195 0.387601 15.8553C0.134586 14.1258 4.4331e-06 3.87253 0.0915202 1.91211C0.0915202 1.91211 9.5015 1.71875 10.8312 1.84766" fill="#EB5A3C"/>
<path d="M31.5083 4.24313C30.8624 4.00143 30.9593 4.76412 30.9646 5.16694C30.97 5.53754 30.9646 5.7685 30.9539 6.268C30.9377 7.25627 31.0239 9.94715 31.0346 10.9193C31.0562 12.5521 31.1584 13.9808 31.1315 15.2698C31.0777 17.6922 31.0669 20.1199 31.1638 22.5422C31.4114 28.5792 31.1208 34.627 31.3038 40.6264C31.3199 41.1474 31.6483 41.2925 32.122 41.416L32.8219 41.5342C32.8003 36.3941 33.2041 31.0069 32.8811 25.883C32.7465 23.7453 32.8273 21.613 32.8219 19.47C32.8219 17.4129 32.8057 15.3558 32.8434 13.304C32.8649 12.058 32.8542 10.8119 32.8111 9.56581C32.7627 8.01896 32.8434 5.04878 32.4289 4.63521C32.1759 4.38277 31.9336 4.39889 31.503 4.24313" fill="#6E1946"/>
<path d="M20.3703 37.3125C21.054 37.2964 20.9248 36.7915 20.914 36.3833C20.9087 36.0074 21.0002 35.7764 21.0056 35.2715C21.0217 34.2779 20.9517 31.5601 20.9463 30.5826C20.9356 28.9337 20.8387 27.4943 20.8764 26.1945C20.941 23.7507 20.9679 21.3015 20.8764 18.8577C20.661 12.7723 20.984 6.67081 20.8333 0.62304C20.8225 0.0966791 20.4726 0.069824 19.8805 0.0537109L19.0622 0.0913081C19.0622 5.27435 19.116 10.785 19.1914 16.3011C19.2183 18.4602 19.1914 20.1413 19.1914 22.3005C19.186 24.3737 19.2291 26.028 19.2291 28.1012C19.2291 29.1969 19.1806 30.4107 19.1645 31.9361C19.1483 33.4937 19.0783 36.437 19.4444 36.9097C19.6974 37.2319 19.9397 37.3233 20.3649 37.3125" fill="#91B9B4"/>
<path d="M35.2067 40.4868C34.5822 40.4063 34.4961 40.127 34.5176 39.4126C34.5768 37.2911 34.4422 32.7687 34.2161 29.9972C34.0116 27.489 34.0708 24.927 34.383 22.4456C34.5983 20.7268 34.2969 19.4485 34.2861 17.3216C34.2753 14.5233 34.4422 12.3319 34.4315 10.4413C34.4207 9.27581 34.3884 8.11567 34.3292 6.95015C34.2807 5.86521 34.2915 3.46436 34.3023 3.20118C34.4853 3.13673 35.1259 3.15284 35.2982 3.16895C35.9011 3.23341 36.1918 3.30323 36.6225 3.5127C36.8809 4.6245 36.7947 6.9609 36.8055 8.26606C36.8055 9.03411 36.7517 12.203 36.8055 12.9657C36.8916 14.2333 36.8432 15.5116 36.8539 16.7845C36.8647 18.4065 36.9616 20.0286 36.9616 21.6506C36.9616 23.7078 36.7893 25.7595 36.7355 27.8166C36.644 31.6085 37.1231 36.5015 37.08 39.6704C37.0693 40.2988 37.1446 40.6426 36.4717 40.6426C36.4717 40.6426 35.8311 40.562 35.2067 40.4868Z" fill="#EB5A3C"/>
<path d="M92.3179 38.7519C92.4471 37.1782 92.1079 34.7452 92.1026 33.4776C92.1026 32.7364 92.0164 29.6695 92.0649 28.9283C92.1456 27.6984 92.0864 26.463 92.0864 25.2277C92.0864 23.6594 92.1725 22.0857 92.1564 20.5173C92.1349 18.5247 91.9411 16.5428 91.8711 14.5501C91.7257 10.409 92.3394 4.893 92.0864 1.97117C91.042 1.74558 89.7608 1.6865 88.3504 1.71873C87.9951 4.02827 88.092 6.34318 88.1351 9.1576C88.162 10.9837 88.0005 13.1053 88.0382 15.8177C88.0651 17.8801 88.5927 20.3401 88.3773 22.0051C88.0651 24.4113 88.0274 26.8874 88.2643 29.3151C88.598 32.7847 88.4796 38.478 88.5227 38.5532L92.3233 38.7466L92.3179 38.7519Z" fill="#B41932"/>
<path d="M103.294 38.8379C103.461 34.5518 103.44 31.9576 103.51 28.2569C103.558 25.6466 103.144 22.3327 103.192 19.5827C103.284 14.534 103.343 12.8099 102.939 8.12097C102.848 7.06825 102.998 5.0756 102.961 4.01751C102.934 3.30853 102.907 2.39546 102.88 1.68648C102.88 1.68648 106.347 2.43306 109.038 1.86373C113.323 0.966767 120.419 1.89058 120.419 1.89058C120.839 2.6103 120.898 4.28069 120.887 4.69426C120.806 7.78797 120.742 6.69765 120.849 9.79136C120.952 12.7078 120.402 15.2859 120.402 19.4001C120.402 22.1071 120.812 23.8849 120.903 25.6842C121 27.5372 120.677 29.0948 120.795 32.0328C120.871 33.8482 120.828 38.5962 120.86 39.0366C120.86 39.0366 108.091 39.1118 105.367 38.7842C103.93 38.6123 103.294 38.8325 103.294 38.8325" fill="#6E1946"/>
<path d="M79.9363 0.134296C80.0063 6.53656 80.0655 13.6371 80.3832 19.4216C80.4908 21.3498 80.4316 23.7668 80.507 25.9689C80.5393 26.9464 80.3724 28.9015 80.2916 30.2067C80.227 31.2594 80.254 32.3175 80.2809 33.3702C80.3078 34.4874 80.3347 36.8238 80.2324 36.8775C79.5757 36.7754 78.8866 36.7701 78.1491 36.8775C77.9122 36.0181 78.0683 35.2125 78.0845 34.3209C78.2191 26.6403 77.6807 21.0276 77.8099 13.9539C77.853 11.6551 77.7776 8.51847 77.5946 6.23041C77.4385 4.2485 77.5085 2.01953 77.7507 0.0429884C78.5098 0.0268753 79.2311 0.0644725 79.931 0.139667" fill="#FAC39B"/>
<path d="M101.373 0.478041C101.572 3.78122 101.416 5.95649 101.48 8.79776C101.534 11.2899 101.814 13.4168 101.663 16.2796C101.534 18.7503 101.787 21.2263 101.841 23.7024C101.895 26.1086 101.938 28.5202 101.965 30.9264C102.008 32.7901 102.051 34.482 102.051 36.3511C102.051 36.6626 102.013 37.334 102.019 37.6455C102.019 37.6455 101.362 37.522 100.716 37.5811C99.0954 37.7261 97.8465 37.5327 97.3674 37.4414C96.969 37.3501 97.3028 30.8404 97.3136 30.2389C97.3566 27.7951 97.3674 25.3459 97.3566 22.9021C97.3459 20.426 97.1144 17.7996 97.0659 15.3236C97.0175 12.8207 97.1575 10.4735 97.0875 7.97599C97.0229 5.45161 96.9475 3.3032 96.8829 0.784189C96.8721 0.268571 97.3566 1.93417e-05 98.1695 0.225602C99.2516 0.521009 100.393 0.166521 101.378 0.478041" fill="#FF9619"/>
<path d="M16.3813 3.58248C17.135 3.68453 17.6948 4.39888 17.711 5.24213C17.7325 6.45061 17.711 7.52482 17.6787 8.57217C17.6464 9.74842 17.6087 10.8978 17.6249 12.1761C17.6895 17.4021 17.9156 22.3918 17.6787 27.8004C17.4795 32.3819 17.9048 36.856 17.8563 41.0561C16.4567 40.9756 14.804 40.852 13.4474 40.7876C13.8296 33.0372 13.5874 25.695 13.4959 17.6277C13.4474 13.0892 14.1957 9.54969 13.5551 3.50192C14.5349 3.39987 15.4662 3.45895 16.3706 3.58248" fill="#6E1946"/>
<path d="M76.4372 20.802C76.3403 18.0412 76.3618 12.8206 76.5718 10.0438C76.8033 6.96082 76.0388 2.28803 74.3323 2.39008C72.8412 2.30951 71.21 2.47602 69.7189 2.55121C68.5238 2.61029 66.9896 2.61566 65.7945 2.72308C63.7434 2.90033 63.5173 2.62641 61.4609 2.63178C58.8931 2.63178 56.6752 2.84125 54.1074 2.84125C51.6203 2.84125 48.8479 2.77679 46.3662 2.58881C43.9276 2.40619 41.3382 2.06782 38.9157 2.13764C38.5658 2.14838 38.3666 3.71672 38.2967 5.63418C38.2321 7.48718 38.1083 11.494 38.2644 13.4168C39.3949 12.0311 40.8214 11.4886 42.2157 11.3597C43.3354 11.2576 44.6328 11.1932 45.844 11.3812C45.9625 11.4027 45.0527 10.5433 44.3044 9.94711C43.8845 9.61411 43.4108 9.27036 42.8778 9.19517C42.2211 9.09849 41.5374 9.16294 40.8753 9.12534C41.3544 8.7064 42.1995 7.63757 44.2829 7.92224C45.4026 8.07799 47.2814 10.0169 47.9543 9.4852C48.7079 8.89439 48.4119 6.57948 49.4078 6.32704C50.2206 6.12294 50.759 9.20591 51.1466 9.88803C52.051 8.73326 53.4183 7.89538 54.8879 7.72351C55.6577 7.63757 58.0156 7.91686 58.3386 9.03941C58.3386 9.02867 55.3294 8.49156 53.4614 11.1878C56.1153 10.1405 58.7962 10.4842 61.041 12.2083C61.6655 12.6863 62.0692 13.1912 62.4891 13.7659C63.0921 14.5823 63.0221 14.9475 63.0059 15.4148C62.0208 15.2161 61.111 13.535 59.4099 13.014C57.9833 12.5735 56.4545 12.6595 55.0387 13.0945C58.2686 13.6155 62.7314 17.9016 61.1864 21.4142C60.6857 22.5475 60.5512 21.7902 60.3735 20.8395C60.1636 19.7063 59.8459 19.0564 59.3076 18.3259C58.8339 17.6814 58.3332 17.1121 57.7465 16.5535C57.2297 16.0593 55.647 15.3611 54.9041 15.3987C56.9874 15.9841 58.3171 20.1091 58.5001 20.5495C58.9308 21.6183 58.9254 22.8429 58.9523 23.9816C58.9685 24.6369 59.0223 26.9142 58.1879 27.129C58.1987 27.129 58.3279 21.6183 54.4142 18.4602C55.437 20.2434 55.5178 22.4347 55.3994 24.422C55.3348 25.5446 55.1571 26.4415 54.6618 27.4566C54.5542 27.6769 54.1397 28.692 53.9782 28.7296C53.456 28.8477 53.7305 25.6412 53.6552 25.0773C53.5583 24.3791 52.2932 19.6418 50.9635 20.8073C50.2906 21.3981 50.6351 24.0622 50.7159 25.2438C50.8182 26.6993 50.9904 28.8209 51.0174 30.2818C51.0712 33.3111 51.1573 35.4273 51.5449 38.4619C55.0225 36.5928 70.3218 28.7726 72.5074 35.2232C72.5128 35.4273 72.3836 35.2822 72.3836 35.2822C70.8871 33.0479 66.8065 34.1973 64.7609 34.8257C61.1272 35.9429 57.6496 37.7046 54.355 39.5844C59.7652 39.6005 68.1093 39.5791 74.2893 39.5844C75.7105 39.5844 76.8517 38.4082 76.8033 36.9902C76.7656 35.9482 76.7387 34.6968 76.7387 33.3433C76.7387 31.8233 76.8194 30.169 76.8571 28.649C76.9379 25.6144 76.5395 23.8097 76.4318 20.7751M46.0701 23.9547C45.8548 24.7389 45.591 26.0709 45.5533 26.4147C45.5156 26.7584 45.2357 28.6436 45.2357 28.6436C45.1065 28.5685 45.0419 28.4288 44.9827 28.2945C44.2129 26.5543 44.3636 23.8044 44.369 23.7936C44.6328 19.4646 46.1778 18.3152 46.1886 18.3259C45.4941 17.9285 44.0945 19.5612 43.3623 20.5871C42.3826 21.9621 42.5495 22.9074 42.4256 25.0397C41.9035 24.9323 41.3813 24.0622 41.3436 23.4123C41.166 20.05 42.6571 16.9617 44.2775 15.6941C44.4605 15.533 42.4095 15.9304 42.0488 16.0808C40.7191 16.6233 39.7717 17.5686 39.1149 18.8415C37.7422 21.5056 38.6197 24.6798 38.4259 27.5909C38.3128 29.2721 38.5604 30.921 38.5443 32.6075C38.5335 33.875 38.2105 34.1114 39.481 34.2295C39.987 34.2779 40.4877 34.3531 40.9775 34.4605C43.9706 35.105 46.3662 36.48 48.4765 38.6606C48.8102 34.7774 48.8587 31.1949 48.8587 27.2955C48.8587 25.754 49.1117 22.4509 48.0835 21.135C47.0391 19.7976 46.3178 23.09 46.0755 23.9655M38.7327 35.3091C38.6627 36.8183 38.7542 38.0322 38.7812 39.7885C40.2723 39.6865 41.1552 39.8154 42.6356 39.9067C44.0622 39.9926 45.5749 39.8422 47.0014 40.0302C44.8212 37.6723 42.038 35.5938 38.7327 35.3037M41.1713 14.4803C41.7043 14.1258 43.8899 13.0193 44.1537 13.0355C42.5818 12.4339 40.6922 12.5789 39.3033 13.4598C37.9575 14.3138 38.4097 16.6663 38.2321 18.1755C38.905 16.8274 39.9063 15.3289 41.1713 14.4803Z" fill="#0F2837"/>
<path d="M85.8418 3.08302C86.0464 3.10988 86.1971 3.28175 86.1971 3.48048C86.2994 7.68062 86.3909 11.4672 86.6601 15.807C86.7677 17.5311 86.8539 20.0716 86.6062 22.0911C86.2779 24.7497 86.9561 26.9089 86.7677 29.5837C86.5201 33.1124 87.0423 36.0074 86.8431 39.5415L82.4503 39.6382C82.0897 39.649 81.7613 39.3106 81.8097 38.462C81.8582 37.6187 81.7882 33.9825 81.7882 31.254C81.7882 28.5256 82.1489 25.9904 81.8474 22.9504C81.6967 21.4519 82.0574 19.8567 81.9658 18.3528C81.8097 15.6297 81.7182 13.2504 81.6644 10.5219C81.6321 8.91058 81.6644 6.43454 81.6159 4.85546C81.5782 3.7544 81.8205 2.94337 82.4342 2.66945C83.134 2.35793 85.0505 2.9756 85.8418 3.08302Z" fill="#91B9B4"/>
<path d="M22.416 35.2823C22.3729 36.3027 22.3514 36.6519 22.3514 37.0386C22.3514 37.2964 22.5775 37.3394 22.7874 37.4521C22.9274 37.5273 24.1063 37.7744 24.4939 37.8603C24.8277 37.9302 25.3068 37.9839 25.6513 37.9785C26.7872 37.957 27.9177 38.3491 29.0536 38.2471C29.0913 38.2471 29.1289 38.2309 29.1612 38.2095C29.2581 38.1504 29.5757 38 29.6619 37.3662C29.7911 36.4048 29.5273 35.5615 29.678 33.8052C29.8234 32.0489 29.6942 27.2902 29.7049 26.1461C29.7749 17.4773 29.285 17.3377 29.5004 10.6454C29.5757 8.28212 29.5165 7.49795 29.2581 5.03265C29.1881 4.37738 28.8921 2.72311 29.0374 1.57908C29.0913 1.16551 28.8329 0.811022 28.4291 0.789538C26.545 0.69286 22.5936 0.993637 22.5936 0.993637C22.3783 1.86911 22.3352 2.69625 22.3891 3.87251C22.4268 4.6889 22.2706 6.03703 22.2706 6.85343C22.2706 7.77724 22.206 8.69569 22.2491 9.6195C22.3622 12.0902 22.4268 14.5716 22.3514 17.0423C22.163 23.3102 22.7121 26.9464 22.4698 33.107L22.416 35.2876V35.2823Z" fill="#FF9619"/>
</g>
</svg>
