<svg width="35" height="35" viewBox="0 0 35 35" fill="none" xmlns="http://www.w3.org/2000/svg">
<g clip-path="url(#clip0_3311_840)">
<path d="M17.5025 -0.000142903C27.1994 0.0334737 35.0529 7.88754 34.9999 17.4999C34.947 27.2191 27.1046 35.0416 17.4566 34.9999C7.74342 34.9571 -0.0275626 27.1142 -4.92373e-05 17.3817C0.0274641 7.81114 7.92582 -0.0327408 17.5025 -0.000142903ZM17.4648 32.5367C25.8574 32.502 32.5615 25.8113 32.5401 17.4897C32.5197 9.14664 25.783 2.44267 17.4383 2.46202C9.10278 2.48138 2.43131 9.24545 2.46188 17.6465C2.49143 25.8337 9.27907 32.5703 17.4648 32.5367Z" fill="#0F2837"/>
<path d="M17.4923 16.2817C19.6271 16.2817 21.762 16.2817 23.8968 16.2817C24.6814 16.2817 25.2205 16.7696 25.2317 17.4827C25.2419 18.2101 24.6957 18.7184 23.8937 18.7184C19.5986 18.7184 15.3035 18.7204 11.0083 18.7174C10.3714 18.7174 9.86907 18.2834 9.78755 17.6865C9.70196 17.059 10.0403 16.5078 10.6374 16.3326C10.7923 16.2868 10.9625 16.2827 11.1255 16.2827C13.2481 16.2797 15.3697 16.2807 17.4923 16.2807V16.2817Z" fill="#0F2837"/>
<path d="M19.1024 13.8378C17.5127 13.8378 15.9241 13.8388 14.3344 13.8378C13.5691 13.8378 13.0077 13.3142 13.0117 12.6133C13.0158 11.9074 13.5691 11.4011 14.3436 11.4001C17.5351 11.399 20.7257 11.399 23.9172 11.4001C24.6917 11.4001 25.2338 11.9074 25.2307 12.6235C25.2277 13.3376 24.6866 13.8368 23.908 13.8378C22.3061 13.8398 20.7043 13.8378 19.1024 13.8378Z" fill="#0F2837"/>
<path d="M20.7837 21.1642C21.8374 21.1642 22.8911 21.1621 23.9457 21.1642C24.6906 21.1662 25.2266 21.6735 25.2317 22.3733C25.2368 23.0732 24.7008 23.5988 23.9631 23.5998C21.8303 23.6029 19.6965 23.6029 17.5637 23.5998C16.8188 23.5998 16.2848 23.0895 16.2818 22.3896C16.2787 21.6684 16.8106 21.1652 17.584 21.1631C18.651 21.1611 19.7168 21.1631 20.7837 21.1631V21.1642Z" fill="#0F2837"/>
</g>
<defs>
<clipPath id="clip0_3311_840">
<rect width="35" height="35" fill="white"/>
</clipPath>
</defs>
</svg>
