<svg width="35" height="35" viewBox="0 0 35 35" fill="none" xmlns="http://www.w3.org/2000/svg">
<g clip-path="url(#clip0_3352_166)">
<path d="M22.5696 17.2661C22.5609 18.6776 22.1386 19.9354 21.3006 21.0499C21.2044 21.1779 21.2232 21.2365 21.3264 21.3387C22.1443 22.1474 22.9565 22.9613 23.7687 23.7757C24.0568 24.0644 24.0769 24.4782 23.8234 24.7608C23.5432 25.0736 23.0933 25.0815 22.7799 24.7718C22.2798 24.2772 21.7845 23.7787 21.2871 23.2815C20.9557 22.9504 20.6222 22.621 20.2939 22.2859C20.223 22.2134 20.1771 22.2042 20.0923 22.2697C19.2119 22.9495 18.2174 23.3707 17.1158 23.5135C14.2066 23.891 11.5182 22.2601 10.4594 19.6283C9.08459 16.2123 10.9084 12.3939 14.4243 11.286C17.9036 10.1894 21.632 12.3507 22.4197 15.9222C22.4595 16.1026 22.4888 16.2853 22.5167 16.4679C22.5578 16.7379 22.5583 17.0105 22.5692 17.2661H22.5696ZM21.1655 17.2984C21.1725 14.6517 19.097 12.4677 16.4291 12.4114C13.6322 12.3524 11.4294 14.498 11.3997 17.2556C11.3709 19.9407 13.5295 22.1234 16.2551 22.1649C18.9413 22.2055 21.1336 20.0329 21.1655 17.2984Z" fill="#0F2837"/>
</g>
<rect x="0.5" y="0.5" width="34" height="34" rx="17" stroke="#0F2837"/>
<defs>
<clipPath id="clip0_3352_166">
<rect width="14" height="14" fill="white" transform="translate(10 11)"/>
</clipPath>
</defs>
</svg>
