<svg width="25" height="25" viewBox="0 0 25 25" fill="none" xmlns="http://www.w3.org/2000/svg">
<g clip-path="url(#clip0_3311_773)">
<path d="M22.4458 11.1897C22.4302 13.7104 21.6761 15.9564 20.1797 17.9466C20.0079 18.1752 20.0415 18.2797 20.2257 18.4623C21.6862 19.9063 23.1366 21.3597 24.587 22.814C25.1014 23.3296 25.1373 24.0684 24.6846 24.5732C24.1842 25.1318 23.381 25.1458 22.8213 24.5927C21.9282 23.7096 21.0438 22.8194 20.1555 21.9316C19.5637 21.3402 18.9681 20.752 18.3819 20.1536C18.2554 20.0241 18.1735 20.0077 18.022 20.1248C16.4499 21.3387 14.674 22.0908 12.7068 22.3459C7.51182 23.0199 2.71103 20.1076 0.82038 15.408C-1.63466 9.30795 1.62207 2.48941 7.90057 0.510946C14.1135 -1.44724 20.7714 2.41218 22.178 8.78993C22.2491 9.11213 22.3014 9.43824 22.3513 9.76434C22.4247 10.2465 22.4255 10.7333 22.445 11.1897H22.4458ZM19.9384 11.2474C19.9509 6.52124 16.2446 2.62126 11.4805 2.52062C6.48609 2.4153 2.55257 6.24663 2.49948 11.171C2.44796 15.9658 6.30264 19.8634 11.1698 19.9375C15.9667 20.0101 19.8815 16.1304 19.9384 11.2474Z" fill="#0F2837"/>
</g>
<defs>
<clipPath id="clip0_3311_773">
<rect width="25" height="25" fill="white"/>
</clipPath>
</defs>
</svg>
